<svg xmlns="http://www.w3.org/2000/svg" version="1.1" width="512" height="512" x="0" y="0" viewBox="0 0 512 512"  class=""><g><linearGradient id="a" x1="256" x2="256" y1="483.89" y2="28.11" gradientUnits="userSpaceOnUse"><stop offset="0" stop-color="#0061ff"></stop><stop offset="1" stop-color="#60efff"></stop></linearGradient><path fill="url(#a)" d="M468.41 458.89h-6.82V221.2c0-6.9-5.6-12.5-12.5-12.5s-12.5 5.6-12.5 12.5v237.69h-52.01V246.27c0-6.9-5.6-12.5-12.5-12.5s-12.5 5.6-12.5 12.5v212.62h-52v-138.3c0-6.9-5.6-12.5-12.5-12.5s-12.5 5.6-12.5 12.5v138.3h-52.01V289.35c0-6.9-5.6-12.5-12.5-12.5s-12.5 5.6-12.5 12.5v169.54h-52.01V329.88c0-6.9-5.6-12.5-12.5-12.5s-12.5 5.6-12.5 12.5v129.01H94.05c-9.65 0-17.5-7.85-17.5-17.5v-96.35l87.43-87.44c16.09-2.46 31.09-8.25 44.28-16.64l73.77 36.77c4.81 2.4 10.61 1.45 14.42-2.35l140.13-140.13v31.51c0 6.9 5.6 12.5 12.5 12.5s12.5-5.6 12.5-12.5v-61.69c0-6.9-5.6-12.5-12.5-12.5h-61.69c-6.9 0-12.5 5.6-12.5 12.5s5.6 12.5 12.5 12.5h31.51L285.13 251.34l-55.63-27.73c20.05-20.77 32.4-49.02 32.4-80.1 0-63.64-51.77-115.41-115.41-115.41S31.09 79.88 31.09 143.52c0 57.58 42.39 105.44 97.6 114.03l-52.13 52.13v-28.94c0-6.9-5.6-12.5-12.5-12.5s-12.5 5.6-12.5 12.5v160.65c0 23.43 19.07 42.5 42.5 42.5h374.35c6.9 0 12.5-5.6 12.5-12.5s-5.6-12.5-12.5-12.5zM56.09 143.52c0-49.85 40.56-90.41 90.41-90.41s90.41 40.56 90.41 90.41-40.56 90.41-90.41 90.41-90.41-40.56-90.41-90.41zm90.41 70.42c-6.9 0-12.5-5.6-12.5-12.5v-7.18c-8.4-3.12-15.35-9.31-19.07-17.48-2.86-6.28-.08-13.7 6.2-16.55 6.29-2.86 13.7-.08 16.55 6.2 1.15 2.53 4.32 5.07 8.81 5.07 5.18 0 9.39-3.47 9.39-7.74 0-5.58-10.52-7.73-11.71-7.96-19.48-3.69-32.06-16.45-32.06-32.52 0-13.85 9.09-25.72 21.89-30.49V85.6c0-6.9 5.6-12.5 12.5-12.5S159 78.7 159 85.6v7.18c8.4 3.12 15.35 9.31 19.07 17.49 2.86 6.28.08 13.7-6.2 16.55-6.29 2.86-13.7.08-16.55-6.2-1.15-2.53-4.32-5.08-8.81-5.08-5.18 0-9.39 3.47-9.39 7.74 0 4.53 7.36 7.13 11.71 7.95 19.48 3.69 32.06 16.46 32.06 32.52 0 13.85-9.09 25.72-21.89 30.49v7.19c0 6.9-5.6 12.5-12.5 12.5z" data-original="url(#a)" class=""></path></g></svg>