<svg xmlns="http://www.w3.org/2000/svg" version="1.1" width="512" height="512" x="0" y="0" viewBox="0 0 512 512"  class=""><g><g fill-rule="evenodd" clip-rule="evenodd"><path fill="#eceff1" d="M-.059-.136h256.655l101.516 105.957v406.043H-.059z" data-original="#eceff1"></path><path fill="#c4cccf" d="M179.026-.136h77.569l101.516 105.957v406.043H179.026z" data-original="#c4cccf" class=""></path><path fill="#90a4ae" d="M256.595 105.821h101.516L256.595-.136z" data-original="#90a4ae"></path><g fill="#697c86"><path d="M50.593 114.078a8.258 8.258 0 0 1 0-16.516h114.116a8.259 8.259 0 0 1 0 16.516zM50.593 66.936a8.258 8.258 0 0 1 0-16.516h114.116a8.258 8.258 0 0 1 0 16.516z" fill="#697c86" data-original="#697c86" class=""></path></g><path fill="#c4cccf" d="M82.7 367.89h29.932v65.851H82.7z" data-original="#c4cccf" class=""></path><path fill="#90a4ae" d="M97.667 367.89h14.966v65.851H97.667z" data-original="#90a4ae"></path><path fill="#e06379" d="M147.643 330.911h29.932v102.83h-29.932v-102.83z" data-original="#e06379"></path><path fill="#c63c50" d="M162.609 330.911h14.966v102.83h-14.966v-102.83z" data-original="#c63c50"></path><path fill="#f9e997" d="M212.586 300.042h29.932v133.699h-29.932V300.042z" data-original="#f9e997"></path><path fill="#f5d844" d="M227.551 300.042h14.966v133.699h-14.966V300.042z" data-original="#f5d844"></path><path fill="#73cbb1" d="M277.528 266.118h29.932V433.74h-29.932z" data-original="#73cbb1"></path><path fill="#539499" d="M292.494 266.118h14.966V433.74h-14.966z" data-original="#539499"></path><g fill="#697c86"><path d="M42.335 204.85c0-4.561 3.697-8.258 8.258-8.258s8.258 3.697 8.258 8.258v248.608H307.46a8.259 8.259 0 0 1 0 16.516H50.593a8.258 8.258 0 0 1-8.258-8.258z" fill="#697c86" data-original="#697c86" class=""></path><path d="M265.62 214.412a8.237 8.237 0 0 1-.838-16.452l24.623-1.336a8.236 8.236 0 0 1 8.575 9.386l.006.001-3.553 24.402a8.245 8.245 0 0 1-16.323-2.323l.274-1.88c-28.397 24.478-57.911 44.87-87.682 61.91-35.144 20.116-70.727 35.594-105.291 47.631a8.233 8.233 0 0 1-5.419-15.548c33.572-11.691 68.204-26.765 102.517-46.405 28.687-16.419 57.096-36.011 84.4-59.456z" fill="#697c86" data-original="#697c86" class=""></path></g><path fill="#e3a76f" d="m409.7 275.75 102.359 59.096V453.04L409.7 512.136 307.341 453.04V334.846z" data-original="#e3a76f"></path><path fill="#c48958" d="M409.7 393.943V275.75l102.359 59.096z" data-original="#c48958" class=""></path><path fill="#f2d1a5" d="M409.7 512.136V393.943l-102.359-59.097V453.04z" data-original="#f2d1a5"></path><path fill="#e3a76f" d="M409.7 393.943v118.193l102.359-59.096V334.846z" data-original="#e3a76f"></path></g></g></svg>