<svg xmlns="http://www.w3.org/2000/svg" version="1.1" width="512" height="512" x="0" y="0" viewBox="0 0 512 512" class=""><g><path fill="#d8d8fc" d="M512 165v166c0 16.5-13.5 30-30 30s-60-13.5-60-30V150h75c8.402 0 15 6.598 15 15zm0 0" data-original="#d8d8fc" class=""></path><path fill="#a3a3d1" d="M482 361H362V30c0-16.5 43.5-30 60-30s30 13.5 30 30v301c0 16.5 13.5 30 30 30zm0 0" data-original="#a3a3d1" class=""></path><path fill="#f2f2fc" d="M107 0C82.098 0 62 20.098 62 45v437h216.3c14.098 17.398 49.2 30 68.7 30 24.3 0 45-20.102 45-45V30c0-16.5 13.5-30 30-30zm0 0" data-original="#f2f2fc" class=""></path><path fill="#d8d8fc" d="M422 0c-16.5 0-30 13.5-30 30v437c0 24.898-20.7 45-45 45-19.5 0-54.602-12.602-68.7-30H227V0zm0 0" data-original="#d8d8fc" class=""></path><path fill="#25d9f8" d="M331.973 316c0 8.285-6.72 15-15 15-8.286 0-15-6.715-15-15s6.714-15 15-15c8.28 0 15 6.715 15 15zM331.973 376c0 8.285-6.72 15-15 15-8.286 0-15-6.715-15-15s6.714-15 15-15c8.28 0 15 6.715 15 15zm0 0" data-original="#25d9f8" class=""></path><path fill="#76e2f8" d="M272 316c0 8.398-6.598 15-15 15H137c-8.402 0-15-6.602-15-15 0-8.402 6.598-15 15-15h120c8.402 0 15 6.598 15 15zM272 376c0 8.398-6.598 15-15 15H137c-8.402 0-15-6.602-15-15 0-8.402 6.598-15 15-15h120c8.402 0 15 6.598 15 15zm0 0" data-original="#76e2f8" class=""></path><path fill="#ffb99c" d="M227 60c-24.902 0-45 20.098-45 45s20.098 45 45 45 45-20.098 45-45-20.098-45-45-45zm0 0" data-original="#ffb99c"></path><path fill="#4bb9ec" d="M302 195v61c0 8.402-6.598 15-15 15H167c-8.402 0-15-6.598-15-15v-61c0-24.602 20.398-45 45-45h60c24.602 0 45 20.398 45 45zm0 0" data-original="#4bb9ec"></path><path fill="#ff9468" d="M227 150V60c24.902 0 45 20.098 45 45s-20.098 45-45 45zm0 0" data-original="#ff9468"></path><path fill="#0095ff" d="M302 195v61c0 8.402-6.598 15-15 15h-60V150h30c24.602 0 45 20.398 45 45zm0 0" data-original="#0095ff"></path><path fill="#25d9f8" d="M257 391h-30v-30h30c8.402 0 15 6.598 15 15 0 8.398-6.598 15-15 15zM257 331h-30v-30h30c8.402 0 15 6.598 15 15 0 8.398-6.598 15-15 15zm0 0" data-original="#25d9f8" class=""></path><path fill="#d8d8fc" d="M347 512H30c-16.5 0-30-13.5-30-30v-15c0-8.402 6.598-15 15-15h287v15c0 24.898 20.098 45 45 45zm0 0" data-original="#d8d8fc" class=""></path><path fill="#a3a3d1" d="M347 512H227v-60h75v15c0 24.898 20.098 45 45 45zm0 0" data-original="#a3a3d1" class=""></path></g></svg>